<mxfile host="Electron" agent="Mozilla/5.0 (Macintosh; Intel Mac OS X 10_15_7) AppleWebKit/537.36 (KHTML, like Gecko) draw.io/26.0.16 Chrome/132.0.6834.196 Electron/34.2.0 Safari/537.36" version="26.0.16">
  <diagram name="Data Flow" id="qsl-yLtg4liw6EHXuBID">
    <mxGraphModel dx="1272" dy="969" grid="0" gridSize="10" guides="1" tooltips="1" connect="1" arrows="1" fold="1" page="1" pageScale="1" pageWidth="1920" pageHeight="1200" math="0" shadow="0">
      <root>
        <mxCell id="PmAsDYt7ePFWswJWPdAt-0" />
        <mxCell id="PmAsDYt7ePFWswJWPdAt-1" parent="PmAsDYt7ePFWswJWPdAt-0" />
        <mxCell id="N5Wro9hiEPlnRRx0mENQ-124" value="&lt;font style=&quot;&quot;&gt;&lt;b&gt;Data Flow &lt;/b&gt;&lt;font style=&quot;font-size: 20px;&quot;&gt;(data Lineage)&lt;/font&gt;&lt;br style=&quot;font-size: 38px;&quot;&gt;&lt;/font&gt;" style="text;html=1;strokeColor=none;fillColor=none;align=left;verticalAlign=middle;whiteSpace=wrap;rounded=0;fontSize=38;fontFamily=Helvetica;" parent="PmAsDYt7ePFWswJWPdAt-1" vertex="1">
          <mxGeometry x="69" y="47" width="396" height="54" as="geometry" />
        </mxCell>
        <mxCell id="n8bJTZ1ovyGtcUzWuUE2-2" value="" style="rounded=0;whiteSpace=wrap;html=1;fillColor=none;dashed=1;" parent="PmAsDYt7ePFWswJWPdAt-1" vertex="1">
          <mxGeometry x="350" y="290" width="230" height="700" as="geometry" />
        </mxCell>
        <mxCell id="n8bJTZ1ovyGtcUzWuUE2-3" value="&lt;font style=&quot;font-size: 24px;&quot;&gt;Sources&lt;/font&gt;" style="rounded=1;whiteSpace=wrap;html=1;strokeColor=none;" parent="PmAsDYt7ePFWswJWPdAt-1" vertex="1">
          <mxGeometry x="405" y="270" width="120" height="40" as="geometry" />
        </mxCell>
        <mxCell id="fZkgo8HPJRMQnxJt9-JI-30" value="" style="edgeStyle=orthogonalEdgeStyle;rounded=0;orthogonalLoop=1;jettySize=auto;html=1;" edge="1" parent="PmAsDYt7ePFWswJWPdAt-1" source="4ZKNdrfmacIxx5nxEuMF-0" target="fZkgo8HPJRMQnxJt9-JI-29">
          <mxGeometry relative="1" as="geometry" />
        </mxCell>
        <mxCell id="4ZKNdrfmacIxx5nxEuMF-0" value="&lt;font style=&quot;font-size: 20px;&quot;&gt;&lt;b&gt;raw_entities&lt;/b&gt;&lt;/font&gt;" style="image;aspect=fixed;html=1;points=[];align=center;fontSize=12;image=img/lib/azure2/general/Folder_Blank.svg;" parent="PmAsDYt7ePFWswJWPdAt-1" vertex="1">
          <mxGeometry x="430.5" y="426" width="69" height="56.00000000000001" as="geometry" />
        </mxCell>
        <mxCell id="4ZKNdrfmacIxx5nxEuMF-5" value="" style="rounded=1;whiteSpace=wrap;html=1;fillColor=#ffe6cc;strokeColor=#d79b00;fillStyle=hatch;arcSize=5;" parent="PmAsDYt7ePFWswJWPdAt-1" vertex="1">
          <mxGeometry x="673" y="340" width="247" height="650" as="geometry" />
        </mxCell>
        <mxCell id="4ZKNdrfmacIxx5nxEuMF-6" value="Bronze Layer" style="rounded=1;whiteSpace=wrap;html=1;fillColor=#ffe6cc;strokeColor=#d79b00;fontSize=20;fontStyle=1" parent="PmAsDYt7ePFWswJWPdAt-1" vertex="1">
          <mxGeometry x="690" y="280" width="220" height="50" as="geometry" />
        </mxCell>
        <mxCell id="5szykNnx05lKGsdo6Biz-0" value="book" style="rounded=1;whiteSpace=wrap;html=1;fillColor=#ffe6cc;strokeColor=#d79b00;fontSize=16;fontStyle=0" parent="PmAsDYt7ePFWswJWPdAt-1" vertex="1">
          <mxGeometry x="720" y="360" width="160" height="30" as="geometry" />
        </mxCell>
        <mxCell id="D8R9sGTT4eO_Y8YIvJOX-6" value="address" style="rounded=1;whiteSpace=wrap;html=1;fillColor=#ffe6cc;strokeColor=#d79b00;fontSize=16;fontStyle=0" parent="PmAsDYt7ePFWswJWPdAt-1" vertex="1">
          <mxGeometry x="720" y="560" width="160" height="30" as="geometry" />
        </mxCell>
        <mxCell id="D8R9sGTT4eO_Y8YIvJOX-7" value="order_line" style="rounded=1;whiteSpace=wrap;html=1;fillColor=#ffe6cc;strokeColor=#d79b00;fontSize=16;fontStyle=0" parent="PmAsDYt7ePFWswJWPdAt-1" vertex="1">
          <mxGeometry x="720" y="650" width="160" height="30" as="geometry" />
        </mxCell>
        <mxCell id="D8R9sGTT4eO_Y8YIvJOX-8" value="country" style="rounded=1;whiteSpace=wrap;html=1;fillColor=#ffe6cc;strokeColor=#d79b00;fontSize=16;fontStyle=0" parent="PmAsDYt7ePFWswJWPdAt-1" vertex="1">
          <mxGeometry x="720" y="780" width="160" height="30" as="geometry" />
        </mxCell>
        <mxCell id="-fXMBUoAsH7tqhl6yJGk-5" value="" style="rounded=1;whiteSpace=wrap;html=1;fillColor=#f5f5f5;strokeColor=#666666;fillStyle=hatch;arcSize=5;fontColor=#333333;" parent="PmAsDYt7ePFWswJWPdAt-1" vertex="1">
          <mxGeometry x="973" y="340" width="217" height="650" as="geometry" />
        </mxCell>
        <mxCell id="-fXMBUoAsH7tqhl6yJGk-6" value="Silver Layer" style="rounded=1;whiteSpace=wrap;html=1;fillColor=#f5f5f5;strokeColor=#666666;fontSize=20;fontStyle=1;fontColor=#333333;" parent="PmAsDYt7ePFWswJWPdAt-1" vertex="1">
          <mxGeometry x="973" y="280" width="220" height="50" as="geometry" />
        </mxCell>
        <mxCell id="-fXMBUoAsH7tqhl6yJGk-7" value="silver_book_details" style="rounded=1;whiteSpace=wrap;html=1;fillColor=#f5f5f5;strokeColor=#666666;fontSize=16;fontStyle=0;fontColor=#333333;" parent="PmAsDYt7ePFWswJWPdAt-1" vertex="1">
          <mxGeometry x="993" y="434" width="180" height="40" as="geometry" />
        </mxCell>
        <mxCell id="-fXMBUoAsH7tqhl6yJGk-8" value="silver_customer_data" style="rounded=1;whiteSpace=wrap;html=1;fillColor=#f5f5f5;strokeColor=#666666;fontSize=16;fontStyle=0;fontColor=#333333;" parent="PmAsDYt7ePFWswJWPdAt-1" vertex="1">
          <mxGeometry x="991.5" y="570" width="180" height="40" as="geometry" />
        </mxCell>
        <mxCell id="-fXMBUoAsH7tqhl6yJGk-9" value="silver_orders" style="rounded=1;whiteSpace=wrap;html=1;fillColor=#f5f5f5;strokeColor=#666666;fontSize=16;fontStyle=0;fontColor=#333333;" parent="PmAsDYt7ePFWswJWPdAt-1" vertex="1">
          <mxGeometry x="991.5" y="700" width="180" height="40" as="geometry" />
        </mxCell>
        <mxCell id="-fXMBUoAsH7tqhl6yJGk-19" value="" style="rounded=1;whiteSpace=wrap;html=1;fillColor=#fff2cc;strokeColor=#d6b656;fillStyle=hatch;arcSize=5;" parent="PmAsDYt7ePFWswJWPdAt-1" vertex="1">
          <mxGeometry x="1263" y="340" width="217" height="650" as="geometry" />
        </mxCell>
        <mxCell id="-fXMBUoAsH7tqhl6yJGk-20" value="Gold Layer" style="rounded=1;whiteSpace=wrap;html=1;fillColor=#fff2cc;strokeColor=#d6b656;fontSize=20;fontStyle=1;" parent="PmAsDYt7ePFWswJWPdAt-1" vertex="1">
          <mxGeometry x="1263" y="280" width="220" height="50" as="geometry" />
        </mxCell>
        <mxCell id="-fXMBUoAsH7tqhl6yJGk-21" value="fact_sales" style="rounded=1;whiteSpace=wrap;html=1;fillColor=#fff2cc;strokeColor=#d6b656;fontSize=16;fontStyle=0;" parent="PmAsDYt7ePFWswJWPdAt-1" vertex="1">
          <mxGeometry x="1281.5" y="430" width="180" height="40" as="geometry" />
        </mxCell>
        <mxCell id="-fXMBUoAsH7tqhl6yJGk-22" value="dim_customers" style="rounded=1;whiteSpace=wrap;html=1;fillColor=#fff2cc;strokeColor=#d6b656;fontSize=16;fontStyle=0;" parent="PmAsDYt7ePFWswJWPdAt-1" vertex="1">
          <mxGeometry x="1281.5" y="570" width="180" height="40" as="geometry" />
        </mxCell>
        <mxCell id="-fXMBUoAsH7tqhl6yJGk-23" value="dim_books" style="rounded=1;whiteSpace=wrap;html=1;fillColor=#fff2cc;strokeColor=#d6b656;fontSize=16;fontStyle=0;" parent="PmAsDYt7ePFWswJWPdAt-1" vertex="1">
          <mxGeometry x="1283" y="700" width="180" height="40" as="geometry" />
        </mxCell>
        <mxCell id="hYor6iIa-aKugMJ0ksJW-2" value="" style="image;aspect=fixed;html=1;points=[];align=center;fontSize=12;image=img/lib/azure2/general/File.svg;" parent="PmAsDYt7ePFWswJWPdAt-1" vertex="1">
          <mxGeometry x="485.0799999999999" y="450" width="32.46" height="40" as="geometry" />
        </mxCell>
        <mxCell id="fZkgo8HPJRMQnxJt9-JI-2" value="cust_order" style="rounded=1;whiteSpace=wrap;html=1;fillColor=#ffe6cc;strokeColor=#d79b00;fontSize=16;fontStyle=0" vertex="1" parent="PmAsDYt7ePFWswJWPdAt-1">
          <mxGeometry x="720" y="610" width="160" height="30" as="geometry" />
        </mxCell>
        <mxCell id="fZkgo8HPJRMQnxJt9-JI-3" style="edgeStyle=orthogonalEdgeStyle;rounded=0;orthogonalLoop=1;jettySize=auto;html=1;exitX=0.5;exitY=1;exitDx=0;exitDy=0;" edge="1" parent="PmAsDYt7ePFWswJWPdAt-1">
          <mxGeometry relative="1" as="geometry">
            <mxPoint x="780.5" y="468" as="sourcePoint" />
            <mxPoint x="780.5" y="468" as="targetPoint" />
          </mxGeometry>
        </mxCell>
        <mxCell id="fZkgo8HPJRMQnxJt9-JI-4" value="author" style="rounded=1;whiteSpace=wrap;html=1;fillColor=#ffe6cc;strokeColor=#d79b00;fontSize=16;fontStyle=0" vertex="1" parent="PmAsDYt7ePFWswJWPdAt-1">
          <mxGeometry x="720" y="398" width="160" height="30" as="geometry" />
        </mxCell>
        <mxCell id="fZkgo8HPJRMQnxJt9-JI-5" value="book_author" style="rounded=1;whiteSpace=wrap;html=1;fillColor=#ffe6cc;strokeColor=#d79b00;fontSize=16;fontStyle=0" vertex="1" parent="PmAsDYt7ePFWswJWPdAt-1">
          <mxGeometry x="720" y="438" width="160" height="32" as="geometry" />
        </mxCell>
        <mxCell id="fZkgo8HPJRMQnxJt9-JI-6" value="customer" style="rounded=1;whiteSpace=wrap;html=1;fillColor=#ffe6cc;strokeColor=#d79b00;fontSize=16;fontStyle=0" vertex="1" parent="PmAsDYt7ePFWswJWPdAt-1">
          <mxGeometry x="720" y="480" width="160" height="30" as="geometry" />
        </mxCell>
        <mxCell id="fZkgo8HPJRMQnxJt9-JI-8" value="customer_address" style="rounded=1;whiteSpace=wrap;html=1;fillColor=#ffe6cc;strokeColor=#d79b00;fontSize=16;fontStyle=0" vertex="1" parent="PmAsDYt7ePFWswJWPdAt-1">
          <mxGeometry x="720" y="520" width="160" height="30" as="geometry" />
        </mxCell>
        <mxCell id="fZkgo8HPJRMQnxJt9-JI-9" value="order_history" style="rounded=1;whiteSpace=wrap;html=1;fillColor=#ffe6cc;strokeColor=#d79b00;fontSize=16;fontStyle=0" vertex="1" parent="PmAsDYt7ePFWswJWPdAt-1">
          <mxGeometry x="720" y="690" width="160" height="30" as="geometry" />
        </mxCell>
        <mxCell id="fZkgo8HPJRMQnxJt9-JI-10" value="book_language" style="rounded=1;whiteSpace=wrap;html=1;fillColor=#ffe6cc;strokeColor=#d79b00;fontSize=16;fontStyle=0" vertex="1" parent="PmAsDYt7ePFWswJWPdAt-1">
          <mxGeometry x="720" y="740" width="160" height="30" as="geometry" />
        </mxCell>
        <mxCell id="fZkgo8HPJRMQnxJt9-JI-12" value="publisher" style="rounded=1;whiteSpace=wrap;html=1;fillColor=#ffe6cc;strokeColor=#d79b00;fontSize=16;fontStyle=0" vertex="1" parent="PmAsDYt7ePFWswJWPdAt-1">
          <mxGeometry x="720" y="820" width="160" height="30" as="geometry" />
        </mxCell>
        <mxCell id="fZkgo8HPJRMQnxJt9-JI-13" value="address_status" style="rounded=1;whiteSpace=wrap;html=1;fillColor=#ffe6cc;strokeColor=#d79b00;fontSize=16;fontStyle=0" vertex="1" parent="PmAsDYt7ePFWswJWPdAt-1">
          <mxGeometry x="720" y="860" width="160" height="30" as="geometry" />
        </mxCell>
        <mxCell id="fZkgo8HPJRMQnxJt9-JI-14" value="order_status" style="rounded=1;whiteSpace=wrap;html=1;fillColor=#ffe6cc;strokeColor=#d79b00;fontSize=16;fontStyle=0" vertex="1" parent="PmAsDYt7ePFWswJWPdAt-1">
          <mxGeometry x="720" y="900" width="160" height="30" as="geometry" />
        </mxCell>
        <mxCell id="fZkgo8HPJRMQnxJt9-JI-15" value="shipping_method" style="rounded=1;whiteSpace=wrap;html=1;fillColor=#ffe6cc;strokeColor=#d79b00;fontSize=16;fontStyle=0" vertex="1" parent="PmAsDYt7ePFWswJWPdAt-1">
          <mxGeometry x="720" y="940" width="160" height="30" as="geometry" />
        </mxCell>
        <mxCell id="fZkgo8HPJRMQnxJt9-JI-21" value="&lt;font style=&quot;font-size: 20px;&quot;&gt;&lt;b&gt;raw_transactions&lt;/b&gt;&lt;/font&gt;" style="image;aspect=fixed;html=1;points=[];align=center;fontSize=12;image=img/lib/azure2/general/Folder_Blank.svg;" vertex="1" parent="PmAsDYt7ePFWswJWPdAt-1">
          <mxGeometry x="430" y="624" width="69" height="56.00000000000001" as="geometry" />
        </mxCell>
        <mxCell id="fZkgo8HPJRMQnxJt9-JI-22" value="" style="image;aspect=fixed;html=1;points=[];align=center;fontSize=12;image=img/lib/azure2/general/File.svg;" vertex="1" parent="PmAsDYt7ePFWswJWPdAt-1">
          <mxGeometry x="485.0799999999999" y="653.03" width="30" height="36.97" as="geometry" />
        </mxCell>
        <mxCell id="fZkgo8HPJRMQnxJt9-JI-23" value="&lt;font style=&quot;font-size: 20px;&quot;&gt;&lt;b&gt;raw_metadata&lt;/b&gt;&lt;/font&gt;" style="image;aspect=fixed;html=1;points=[];align=center;fontSize=12;image=img/lib/azure2/general/Folder_Blank.svg;" vertex="1" parent="PmAsDYt7ePFWswJWPdAt-1">
          <mxGeometry x="430" y="844" width="70" height="56.81" as="geometry" />
        </mxCell>
        <mxCell id="fZkgo8HPJRMQnxJt9-JI-24" value="" style="image;aspect=fixed;html=1;points=[];align=center;fontSize=12;image=img/lib/azure2/general/File.svg;" vertex="1" parent="PmAsDYt7ePFWswJWPdAt-1">
          <mxGeometry x="485.08" y="870" width="32.46" height="40" as="geometry" />
        </mxCell>
        <mxCell id="fZkgo8HPJRMQnxJt9-JI-29" value="" style="shape=waypoint;sketch=0;size=6;pointerEvents=1;points=[];fillColor=default;resizable=0;rotatable=0;perimeter=centerPerimeter;snapToPoint=1;verticalAlign=top;labelBackgroundColor=default;" vertex="1" parent="PmAsDYt7ePFWswJWPdAt-1">
          <mxGeometry x="710" y="444" width="20" height="20" as="geometry" />
        </mxCell>
        <mxCell id="fZkgo8HPJRMQnxJt9-JI-50" value="" style="endArrow=classic;startArrow=classic;html=1;rounded=0;entryX=0;entryY=0.5;entryDx=0;entryDy=0;exitX=0;exitY=0.5;exitDx=0;exitDy=0;" edge="1" parent="PmAsDYt7ePFWswJWPdAt-1" source="fZkgo8HPJRMQnxJt9-JI-8" target="5szykNnx05lKGsdo6Biz-0">
          <mxGeometry width="50" height="50" relative="1" as="geometry">
            <mxPoint x="620" y="470" as="sourcePoint" />
            <mxPoint x="670" y="420" as="targetPoint" />
            <Array as="points">
              <mxPoint x="610" y="535" />
              <mxPoint x="610" y="375" />
            </Array>
          </mxGeometry>
        </mxCell>
        <mxCell id="fZkgo8HPJRMQnxJt9-JI-52" value="" style="endArrow=classic;startArrow=classic;html=1;rounded=0;entryX=0;entryY=0.5;entryDx=0;entryDy=0;exitX=0;exitY=0.75;exitDx=0;exitDy=0;" edge="1" parent="PmAsDYt7ePFWswJWPdAt-1" source="fZkgo8HPJRMQnxJt9-JI-6" target="fZkgo8HPJRMQnxJt9-JI-4">
          <mxGeometry width="50" height="50" relative="1" as="geometry">
            <mxPoint x="620" y="490" as="sourcePoint" />
            <mxPoint x="670" y="440" as="targetPoint" />
            <Array as="points">
              <mxPoint x="610" y="503" />
              <mxPoint x="610" y="413" />
            </Array>
          </mxGeometry>
        </mxCell>
        <mxCell id="fZkgo8HPJRMQnxJt9-JI-54" value="" style="endArrow=classic;startArrow=classic;html=1;rounded=0;entryX=0;entryY=0.5;entryDx=0;entryDy=0;exitX=0;exitY=0.75;exitDx=0;exitDy=0;" edge="1" parent="PmAsDYt7ePFWswJWPdAt-1">
          <mxGeometry width="50" height="50" relative="1" as="geometry">
            <mxPoint x="720" y="710" as="sourcePoint" />
            <mxPoint x="720" y="620" as="targetPoint" />
            <Array as="points">
              <mxPoint x="610" y="710" />
              <mxPoint x="610" y="670" />
              <mxPoint x="610" y="620" />
            </Array>
          </mxGeometry>
        </mxCell>
        <mxCell id="fZkgo8HPJRMQnxJt9-JI-58" value="" style="edgeStyle=orthogonalEdgeStyle;rounded=0;orthogonalLoop=1;jettySize=auto;html=1;" edge="1" parent="PmAsDYt7ePFWswJWPdAt-1">
          <mxGeometry relative="1" as="geometry">
            <mxPoint x="500" y="660" as="sourcePoint" />
            <mxPoint x="720" y="660" as="targetPoint" />
          </mxGeometry>
        </mxCell>
        <mxCell id="fZkgo8HPJRMQnxJt9-JI-61" value="" style="endArrow=classic;startArrow=classic;html=1;rounded=0;entryX=0;entryY=0.5;entryDx=0;entryDy=0;exitX=0;exitY=0.5;exitDx=0;exitDy=0;" edge="1" parent="PmAsDYt7ePFWswJWPdAt-1">
          <mxGeometry width="50" height="50" relative="1" as="geometry">
            <mxPoint x="720" y="955" as="sourcePoint" />
            <mxPoint x="720" y="795" as="targetPoint" />
            <Array as="points">
              <mxPoint x="610" y="955" />
              <mxPoint x="610" y="795" />
            </Array>
          </mxGeometry>
        </mxCell>
        <mxCell id="fZkgo8HPJRMQnxJt9-JI-62" value="" style="endArrow=classic;startArrow=classic;html=1;rounded=0;entryX=0;entryY=0.5;entryDx=0;entryDy=0;exitX=0;exitY=0.75;exitDx=0;exitDy=0;" edge="1" parent="PmAsDYt7ePFWswJWPdAt-1">
          <mxGeometry width="50" height="50" relative="1" as="geometry">
            <mxPoint x="720" y="920" as="sourcePoint" />
            <mxPoint x="720" y="830" as="targetPoint" />
            <Array as="points">
              <mxPoint x="610" y="920" />
              <mxPoint x="610" y="830" />
            </Array>
          </mxGeometry>
        </mxCell>
        <mxCell id="fZkgo8HPJRMQnxJt9-JI-63" value="" style="edgeStyle=orthogonalEdgeStyle;rounded=0;orthogonalLoop=1;jettySize=auto;html=1;" edge="1" parent="PmAsDYt7ePFWswJWPdAt-1">
          <mxGeometry relative="1" as="geometry">
            <mxPoint x="500" y="876" as="sourcePoint" />
            <mxPoint x="720" y="876" as="targetPoint" />
          </mxGeometry>
        </mxCell>
        <mxCell id="fZkgo8HPJRMQnxJt9-JI-66" value="" style="endArrow=classic;startArrow=classic;html=1;rounded=0;exitX=0;exitY=0.75;exitDx=0;exitDy=0;entryX=0;entryY=0.75;entryDx=0;entryDy=0;" edge="1" parent="PmAsDYt7ePFWswJWPdAt-1" target="fZkgo8HPJRMQnxJt9-JI-6">
          <mxGeometry width="50" height="50" relative="1" as="geometry">
            <mxPoint x="720" y="580" as="sourcePoint" />
            <mxPoint x="720" y="500" as="targetPoint" />
            <Array as="points">
              <mxPoint x="610" y="580" />
              <mxPoint x="610" y="503" />
            </Array>
          </mxGeometry>
        </mxCell>
        <mxCell id="fZkgo8HPJRMQnxJt9-JI-67" value="" style="endArrow=classic;startArrow=classic;html=1;rounded=0;entryX=0;entryY=0.5;entryDx=0;entryDy=0;" edge="1" parent="PmAsDYt7ePFWswJWPdAt-1">
          <mxGeometry width="50" height="50" relative="1" as="geometry">
            <mxPoint x="720" y="830" as="sourcePoint" />
            <mxPoint x="720" y="760" as="targetPoint" />
            <Array as="points">
              <mxPoint x="610" y="830" />
              <mxPoint x="610" y="800" />
              <mxPoint x="610" y="760" />
            </Array>
          </mxGeometry>
        </mxCell>
        <mxCell id="fZkgo8HPJRMQnxJt9-JI-68" value="" style="endArrow=classic;html=1;rounded=0;entryX=0;entryY=0.5;entryDx=0;entryDy=0;" edge="1" parent="PmAsDYt7ePFWswJWPdAt-1" target="-fXMBUoAsH7tqhl6yJGk-7">
          <mxGeometry width="50" height="50" relative="1" as="geometry">
            <mxPoint x="880" y="380" as="sourcePoint" />
            <mxPoint x="930" y="330" as="targetPoint" />
          </mxGeometry>
        </mxCell>
        <mxCell id="fZkgo8HPJRMQnxJt9-JI-69" value="" style="endArrow=classic;html=1;rounded=0;entryX=0;entryY=0.75;entryDx=0;entryDy=0;" edge="1" parent="PmAsDYt7ePFWswJWPdAt-1" target="-fXMBUoAsH7tqhl6yJGk-7">
          <mxGeometry width="50" height="50" relative="1" as="geometry">
            <mxPoint x="880" y="460" as="sourcePoint" />
            <mxPoint x="980" y="520" as="targetPoint" />
          </mxGeometry>
        </mxCell>
        <mxCell id="fZkgo8HPJRMQnxJt9-JI-72" value="" style="endArrow=classic;html=1;rounded=0;exitX=1;exitY=0.75;exitDx=0;exitDy=0;entryX=0;entryY=0.5;entryDx=0;entryDy=0;" edge="1" parent="PmAsDYt7ePFWswJWPdAt-1" source="fZkgo8HPJRMQnxJt9-JI-4" target="-fXMBUoAsH7tqhl6yJGk-7">
          <mxGeometry width="50" height="50" relative="1" as="geometry">
            <mxPoint x="940" y="650" as="sourcePoint" />
            <mxPoint x="990" y="520" as="targetPoint" />
          </mxGeometry>
        </mxCell>
        <mxCell id="fZkgo8HPJRMQnxJt9-JI-73" value="" style="endArrow=classic;html=1;rounded=0;entryX=0;entryY=0.75;entryDx=0;entryDy=0;" edge="1" parent="PmAsDYt7ePFWswJWPdAt-1" target="-fXMBUoAsH7tqhl6yJGk-7">
          <mxGeometry width="50" height="50" relative="1" as="geometry">
            <mxPoint x="880" y="760" as="sourcePoint" />
            <mxPoint x="930" y="710" as="targetPoint" />
          </mxGeometry>
        </mxCell>
        <mxCell id="fZkgo8HPJRMQnxJt9-JI-74" value="" style="endArrow=classic;html=1;rounded=0;entryX=0;entryY=0.75;entryDx=0;entryDy=0;" edge="1" parent="PmAsDYt7ePFWswJWPdAt-1" target="-fXMBUoAsH7tqhl6yJGk-7">
          <mxGeometry width="50" height="50" relative="1" as="geometry">
            <mxPoint x="880" y="840" as="sourcePoint" />
            <mxPoint x="930" y="790" as="targetPoint" />
          </mxGeometry>
        </mxCell>
        <mxCell id="fZkgo8HPJRMQnxJt9-JI-75" value="" style="endArrow=classic;html=1;rounded=0;entryX=0;entryY=0.5;entryDx=0;entryDy=0;" edge="1" parent="PmAsDYt7ePFWswJWPdAt-1" target="-fXMBUoAsH7tqhl6yJGk-8">
          <mxGeometry width="50" height="50" relative="1" as="geometry">
            <mxPoint x="880" y="500" as="sourcePoint" />
            <mxPoint x="930" y="450" as="targetPoint" />
          </mxGeometry>
        </mxCell>
        <mxCell id="fZkgo8HPJRMQnxJt9-JI-76" value="" style="endArrow=classic;html=1;rounded=0;entryX=0;entryY=0.5;entryDx=0;entryDy=0;" edge="1" parent="PmAsDYt7ePFWswJWPdAt-1" target="-fXMBUoAsH7tqhl6yJGk-8">
          <mxGeometry width="50" height="50" relative="1" as="geometry">
            <mxPoint x="880" y="540" as="sourcePoint" />
            <mxPoint x="990" y="660" as="targetPoint" />
          </mxGeometry>
        </mxCell>
        <mxCell id="fZkgo8HPJRMQnxJt9-JI-77" value="" style="endArrow=classic;html=1;rounded=0;entryX=0;entryY=0.5;entryDx=0;entryDy=0;" edge="1" parent="PmAsDYt7ePFWswJWPdAt-1" target="-fXMBUoAsH7tqhl6yJGk-8">
          <mxGeometry width="50" height="50" relative="1" as="geometry">
            <mxPoint x="880" y="580" as="sourcePoint" />
            <mxPoint x="990" y="660" as="targetPoint" />
          </mxGeometry>
        </mxCell>
        <mxCell id="fZkgo8HPJRMQnxJt9-JI-78" value="" style="endArrow=classic;html=1;rounded=0;entryX=0;entryY=0.5;entryDx=0;entryDy=0;" edge="1" parent="PmAsDYt7ePFWswJWPdAt-1" target="-fXMBUoAsH7tqhl6yJGk-8">
          <mxGeometry width="50" height="50" relative="1" as="geometry">
            <mxPoint x="880" y="800" as="sourcePoint" />
            <mxPoint x="930" y="750" as="targetPoint" />
          </mxGeometry>
        </mxCell>
        <mxCell id="fZkgo8HPJRMQnxJt9-JI-79" value="" style="endArrow=classic;html=1;rounded=0;entryX=0;entryY=0.5;entryDx=0;entryDy=0;" edge="1" parent="PmAsDYt7ePFWswJWPdAt-1" target="-fXMBUoAsH7tqhl6yJGk-8">
          <mxGeometry width="50" height="50" relative="1" as="geometry">
            <mxPoint x="880" y="880" as="sourcePoint" />
            <mxPoint x="990" y="670" as="targetPoint" />
          </mxGeometry>
        </mxCell>
        <mxCell id="fZkgo8HPJRMQnxJt9-JI-80" value="" style="endArrow=classic;html=1;rounded=0;entryX=0;entryY=0.5;entryDx=0;entryDy=0;" edge="1" parent="PmAsDYt7ePFWswJWPdAt-1" target="-fXMBUoAsH7tqhl6yJGk-9">
          <mxGeometry width="50" height="50" relative="1" as="geometry">
            <mxPoint x="880" y="630" as="sourcePoint" />
            <mxPoint x="930" y="580" as="targetPoint" />
          </mxGeometry>
        </mxCell>
        <mxCell id="fZkgo8HPJRMQnxJt9-JI-81" value="" style="endArrow=classic;html=1;rounded=0;entryX=0;entryY=0.5;entryDx=0;entryDy=0;" edge="1" parent="PmAsDYt7ePFWswJWPdAt-1" target="-fXMBUoAsH7tqhl6yJGk-9">
          <mxGeometry width="50" height="50" relative="1" as="geometry">
            <mxPoint x="880" y="670" as="sourcePoint" />
            <mxPoint x="930" y="620" as="targetPoint" />
          </mxGeometry>
        </mxCell>
        <mxCell id="fZkgo8HPJRMQnxJt9-JI-82" value="" style="endArrow=classic;html=1;rounded=0;entryX=0;entryY=0.5;entryDx=0;entryDy=0;" edge="1" parent="PmAsDYt7ePFWswJWPdAt-1" target="-fXMBUoAsH7tqhl6yJGk-9">
          <mxGeometry width="50" height="50" relative="1" as="geometry">
            <mxPoint x="880" y="710" as="sourcePoint" />
            <mxPoint x="930" y="660" as="targetPoint" />
          </mxGeometry>
        </mxCell>
        <mxCell id="fZkgo8HPJRMQnxJt9-JI-83" value="" style="endArrow=classic;html=1;rounded=0;entryX=0;entryY=0.75;entryDx=0;entryDy=0;" edge="1" parent="PmAsDYt7ePFWswJWPdAt-1" target="-fXMBUoAsH7tqhl6yJGk-9">
          <mxGeometry width="50" height="50" relative="1" as="geometry">
            <mxPoint x="880" y="920" as="sourcePoint" />
            <mxPoint x="930" y="870" as="targetPoint" />
          </mxGeometry>
        </mxCell>
        <mxCell id="fZkgo8HPJRMQnxJt9-JI-84" value="silver_shipping" style="rounded=1;whiteSpace=wrap;html=1;fillColor=#f5f5f5;strokeColor=#666666;fontSize=16;fontStyle=0;fontColor=#333333;" vertex="1" parent="PmAsDYt7ePFWswJWPdAt-1">
          <mxGeometry x="991.5" y="850" width="180" height="40" as="geometry" />
        </mxCell>
        <mxCell id="fZkgo8HPJRMQnxJt9-JI-86" value="" style="endArrow=classic;html=1;rounded=0;entryX=0;entryY=0.5;entryDx=0;entryDy=0;" edge="1" parent="PmAsDYt7ePFWswJWPdAt-1" target="fZkgo8HPJRMQnxJt9-JI-84">
          <mxGeometry width="50" height="50" relative="1" as="geometry">
            <mxPoint x="880" y="630" as="sourcePoint" />
            <mxPoint x="930" y="580" as="targetPoint" />
          </mxGeometry>
        </mxCell>
        <mxCell id="fZkgo8HPJRMQnxJt9-JI-87" value="" style="endArrow=classic;html=1;rounded=0;entryX=0;entryY=0.5;entryDx=0;entryDy=0;" edge="1" parent="PmAsDYt7ePFWswJWPdAt-1" target="fZkgo8HPJRMQnxJt9-JI-84">
          <mxGeometry width="50" height="50" relative="1" as="geometry">
            <mxPoint x="880" y="960" as="sourcePoint" />
            <mxPoint x="930" y="910" as="targetPoint" />
          </mxGeometry>
        </mxCell>
        <mxCell id="fZkgo8HPJRMQnxJt9-JI-88" value="" style="endArrow=classic;html=1;rounded=0;entryX=0;entryY=0.5;entryDx=0;entryDy=0;" edge="1" parent="PmAsDYt7ePFWswJWPdAt-1" target="-fXMBUoAsH7tqhl6yJGk-21">
          <mxGeometry width="50" height="50" relative="1" as="geometry">
            <mxPoint x="1170" y="720" as="sourcePoint" />
            <mxPoint x="1220" y="670" as="targetPoint" />
          </mxGeometry>
        </mxCell>
        <mxCell id="fZkgo8HPJRMQnxJt9-JI-89" value="" style="endArrow=classic;html=1;rounded=0;entryX=0;entryY=0.25;entryDx=0;entryDy=0;" edge="1" parent="PmAsDYt7ePFWswJWPdAt-1" target="-fXMBUoAsH7tqhl6yJGk-21">
          <mxGeometry width="50" height="50" relative="1" as="geometry">
            <mxPoint x="1170" y="460" as="sourcePoint" />
            <mxPoint x="1220" y="410" as="targetPoint" />
          </mxGeometry>
        </mxCell>
        <mxCell id="fZkgo8HPJRMQnxJt9-JI-90" value="" style="endArrow=classic;html=1;rounded=0;entryX=0;entryY=0.5;entryDx=0;entryDy=0;" edge="1" parent="PmAsDYt7ePFWswJWPdAt-1" target="-fXMBUoAsH7tqhl6yJGk-21">
          <mxGeometry width="50" height="50" relative="1" as="geometry">
            <mxPoint x="1170" y="600" as="sourcePoint" />
            <mxPoint x="1220" y="550" as="targetPoint" />
          </mxGeometry>
        </mxCell>
        <mxCell id="fZkgo8HPJRMQnxJt9-JI-91" value="" style="endArrow=classic;html=1;rounded=0;entryX=0;entryY=0.5;entryDx=0;entryDy=0;" edge="1" parent="PmAsDYt7ePFWswJWPdAt-1" target="-fXMBUoAsH7tqhl6yJGk-22">
          <mxGeometry width="50" height="50" relative="1" as="geometry">
            <mxPoint x="1170" y="600" as="sourcePoint" />
            <mxPoint x="1220" y="550" as="targetPoint" />
          </mxGeometry>
        </mxCell>
        <mxCell id="fZkgo8HPJRMQnxJt9-JI-92" value="" style="endArrow=classic;html=1;rounded=0;entryX=0;entryY=0.5;entryDx=0;entryDy=0;" edge="1" parent="PmAsDYt7ePFWswJWPdAt-1" target="-fXMBUoAsH7tqhl6yJGk-23">
          <mxGeometry width="50" height="50" relative="1" as="geometry">
            <mxPoint x="1170" y="460" as="sourcePoint" />
            <mxPoint x="1220" y="410" as="targetPoint" />
          </mxGeometry>
        </mxCell>
        <mxCell id="fZkgo8HPJRMQnxJt9-JI-93" value="dim_orders" style="rounded=1;whiteSpace=wrap;html=1;fillColor=#fff2cc;strokeColor=#d6b656;fontSize=16;fontStyle=0;" vertex="1" parent="PmAsDYt7ePFWswJWPdAt-1">
          <mxGeometry x="1281.5" y="850" width="180" height="40" as="geometry" />
        </mxCell>
        <mxCell id="fZkgo8HPJRMQnxJt9-JI-94" value="" style="endArrow=classic;html=1;rounded=0;entryX=0;entryY=0.5;entryDx=0;entryDy=0;" edge="1" parent="PmAsDYt7ePFWswJWPdAt-1" target="fZkgo8HPJRMQnxJt9-JI-93">
          <mxGeometry width="50" height="50" relative="1" as="geometry">
            <mxPoint x="1170" y="720" as="sourcePoint" />
            <mxPoint x="1220" y="670" as="targetPoint" />
          </mxGeometry>
        </mxCell>
        <mxCell id="fZkgo8HPJRMQnxJt9-JI-95" value="" style="endArrow=classic;html=1;rounded=0;entryX=0;entryY=0.75;entryDx=0;entryDy=0;" edge="1" parent="PmAsDYt7ePFWswJWPdAt-1" target="fZkgo8HPJRMQnxJt9-JI-93">
          <mxGeometry width="50" height="50" relative="1" as="geometry">
            <mxPoint x="1170" y="870" as="sourcePoint" />
            <mxPoint x="1220" y="820" as="targetPoint" />
          </mxGeometry>
        </mxCell>
      </root>
    </mxGraphModel>
  </diagram>
</mxfile>
